<svg xmlns="http://www.w3.org/2000/svg" xmlns:xlink="http://www.w3.org/1999/xlink" width="500" zoomAndPan="magnify" viewBox="0 0 375 374.999991" height="500" preserveAspectRatio="xMidYMid meet" version="1.0"><defs><g/><clipPath id="fe7684f08f"><path d="M 42.746094 126.910156 L 141.546875 126.910156 L 141.546875 248.167969 L 42.746094 248.167969 Z M 42.746094 126.910156 " clip-rule="nonzero"/></clipPath></defs><g clip-path="url(#fe7684f08f)"><path fill="#ffffff" d="M 51.984375 235.636719 C 51.0625 235.589844 50.078125 235.570312 49.183594 235.316406 C 48.550781 235.136719 47.765625 234.613281 47.9375 233.847656 C 48.089844 233.136719 48.90625 232.644531 49.484375 232.296875 C 50.789062 231.496094 52.214844 231.019531 53.632812 230.5 C 53.75 232.21875 53.871094 233.9375 53.992188 235.660156 C 53.320312 235.671875 52.65625 235.671875 51.984375 235.636719 Z M 50.488281 223.484375 C 49.566406 223.441406 48.582031 223.421875 47.683594 223.167969 C 47.054688 222.984375 46.269531 222.464844 46.4375 221.699219 C 46.59375 220.984375 47.410156 220.492188 47.988281 220.140625 C 49.5 219.21875 51.175781 218.722656 52.816406 218.09375 C 52.929688 219.894531 53.050781 221.695312 53.167969 223.496094 C 52.273438 223.53125 51.378906 223.53125 50.488281 223.484375 Z M 50.488281 210.585938 C 49.566406 210.542969 48.582031 210.523438 47.683594 210.265625 C 47.054688 210.085938 46.269531 209.566406 46.4375 208.800781 C 46.59375 208.082031 47.410156 207.59375 47.988281 207.242188 C 49.269531 206.460938 50.667969 205.984375 52.0625 205.472656 C 52.132812 206.644531 52.191406 207.8125 52.257812 208.976562 C 52.292969 209.523438 52.328125 210.070312 52.359375 210.613281 C 51.734375 210.621094 51.109375 210.617188 50.488281 210.585938 Z M 48.242188 185.539062 C 47.320312 185.492188 46.332031 185.472656 45.4375 185.214844 C 44.808594 185.035156 44.023438 184.515625 44.191406 183.75 C 44.347656 183.035156 45.164062 182.542969 45.738281 182.191406 C 47.316406 181.230469 49.066406 180.734375 50.765625 180.066406 C 50.847656 181.890625 50.933594 183.71875 51.023438 185.542969 C 50.09375 185.582031 49.164062 185.582031 48.242188 185.539062 Z M 48.242188 172.636719 C 47.320312 172.59375 46.332031 172.570312 45.4375 172.316406 C 44.808594 172.136719 44.023438 171.617188 44.191406 170.847656 C 44.347656 170.136719 45.164062 169.644531 45.738281 169.292969 C 47.148438 168.433594 48.699219 167.945312 50.230469 167.375 C 50.242188 167.707031 50.253906 168.039062 50.269531 168.371094 C 50.324219 169.800781 50.386719 171.226562 50.445312 172.65625 C 49.710938 172.675781 48.976562 172.675781 48.242188 172.636719 Z M 48.242188 159.738281 C 47.320312 159.695312 46.332031 159.671875 45.4375 159.417969 C 44.808594 159.238281 44.023438 158.71875 44.191406 157.949219 C 44.347656 157.234375 45.164062 156.746094 45.738281 156.394531 C 47.007812 155.621094 48.386719 155.148438 49.765625 154.644531 C 49.820312 156.355469 49.875 158.0625 49.933594 159.769531 C 49.371094 159.773438 48.804688 159.765625 48.242188 159.738281 Z M 48.242188 146.839844 C 47.320312 146.792969 46.332031 146.773438 45.4375 146.515625 C 44.808594 146.335938 44.023438 145.816406 44.191406 145.050781 C 44.347656 144.335938 45.164062 143.84375 45.738281 143.492188 C 46.992188 142.734375 48.351562 142.261719 49.710938 141.765625 C 49.535156 143.460938 49.511719 145.183594 49.535156 146.871094 C 49.105469 146.867188 48.671875 146.859375 48.242188 146.839844 Z M 141.394531 181.632812 C 141.382812 180.480469 141.394531 179.328125 141.367188 178.175781 C 141.351562 177.613281 141.34375 177.046875 141.3125 176.484375 C 141.289062 176.179688 141.273438 175.875 141.234375 175.570312 C 141.195312 175.285156 141.097656 175.035156 141.03125 174.761719 C 141.207031 174.726562 141.289062 174.453125 141.113281 174.363281 C 139.960938 173.757812 138.492188 173.757812 137.226562 173.710938 C 136.550781 173.683594 135.875 173.671875 135.199219 173.691406 C 134.710938 173.703125 134.1875 173.691406 133.703125 173.804688 C 133.738281 173.785156 133.726562 173.75 133.695312 173.730469 C 133.691406 170.882812 133.664062 168.03125 133.597656 165.179688 C 133.441406 158.476562 133.09375 151.777344 132.5 145.097656 C 132.472656 144.757812 132.441406 144.421875 132.410156 144.078125 C 132.820312 144.136719 133.246094 144.128906 133.644531 144.152344 C 134.316406 144.195312 134.988281 144.234375 135.660156 144.292969 C 136.839844 144.398438 138.089844 144.640625 139.28125 144.492188 C 139.1875 144.875 139.074219 145.226562 139.03125 145.632812 C 138.980469 146.128906 138.953125 146.625 138.9375 147.125 C 138.90625 148.089844 138.886719 149.054688 138.871094 150.019531 C 138.84375 151.980469 138.828125 153.945312 138.8125 155.90625 C 138.800781 157.808594 138.804688 159.710938 138.789062 161.617188 C 138.777344 163.285156 138.722656 165.074219 137.9375 166.589844 C 137.5625 167.320312 136.992188 167.972656 136.289062 168.40625 C 135.9375 168.625 135.5625 168.789062 135.167969 168.917969 C 134.765625 169.042969 134.339844 169.21875 133.917969 169.207031 C 133.730469 169.207031 133.675781 169.453125 133.847656 169.515625 C 134.171875 169.632812 134.476562 169.789062 134.824219 169.8125 C 135.226562 169.835938 135.617188 169.753906 135.996094 169.613281 C 136.738281 169.347656 137.40625 168.859375 137.941406 168.28125 C 139.121094 166.996094 139.59375 165.300781 139.757812 163.597656 C 139.949219 161.640625 139.875 159.648438 139.878906 157.683594 C 139.886719 155.566406 139.902344 153.449219 139.894531 151.335938 C 139.886719 150.183594 139.894531 149.03125 139.867188 147.878906 C 139.855469 147.3125 139.84375 146.75 139.8125 146.1875 C 139.792969 145.878906 139.773438 145.574219 139.738281 145.269531 C 139.699219 144.984375 139.601562 144.734375 139.53125 144.460938 C 139.710938 144.429688 139.789062 144.152344 139.613281 144.0625 C 138.464844 143.460938 136.992188 143.460938 135.726562 143.410156 C 135.050781 143.386719 134.378906 143.375 133.703125 143.390625 C 133.261719 143.402344 132.796875 143.398438 132.355469 143.476562 C 132.179688 141.613281 131.957031 139.75 131.515625 137.933594 C 130.960938 135.648438 130.050781 133.464844 128.144531 131.988281 C 126.109375 130.40625 123.546875 129.746094 121.054688 129.316406 C 117.980469 128.785156 114.871094 128.433594 111.769531 128.132812 C 105.285156 127.5 98.769531 127.230469 92.253906 127.105469 C 85.761719 126.980469 79.269531 127 72.773438 126.964844 C 67.480469 126.9375 61.972656 126.964844 56.933594 128.796875 C 54.585938 129.648438 52.472656 130.882812 50.617188 132.558594 C 50.089844 133.035156 50.828125 133.746094 51.335938 133.285156 C 55.1875 129.796875 60.53125 128.628906 65.566406 128.261719 C 68.242188 128.0625 70.917969 128.089844 73.589844 128.101562 C 76.789062 128.113281 79.988281 128.117188 83.183594 128.132812 C 89.523438 128.164062 95.859375 128.242188 102.195312 128.566406 C 108.363281 128.878906 114.578125 129.351562 120.667969 130.394531 C 123.160156 130.824219 125.824219 131.460938 127.761719 133.1875 C 129.484375 134.722656 130.15625 137.035156 130.59375 139.230469 C 131.078125 141.644531 131.253906 144.113281 131.460938 146.5625 C 131.746094 149.914062 131.96875 153.269531 132.136719 156.621094 C 132.785156 169.695312 132.617188 182.792969 132.085938 195.867188 C 131.820312 202.453125 131.457031 209.035156 131.058594 215.613281 C 130.859375 218.863281 130.65625 222.109375 130.449219 225.359375 C 130.273438 228.117188 130.167969 230.898438 129.652344 233.621094 C 129.179688 236.121094 128.273438 238.65625 126.488281 240.53125 C 124.757812 242.351562 122.441406 243.382812 120.039062 243.980469 C 117.421875 244.632812 114.71875 244.816406 112.035156 245.023438 C 108.898438 245.257812 105.757812 245.472656 102.613281 245.664062 C 89.828125 246.441406 77.023438 246.851562 64.21875 246.917969 C 61.730469 246.929688 58.640625 247.046875 56.925781 244.886719 C 55.289062 242.832031 55.410156 239.722656 55.230469 237.246094 C 55.21875 237.082031 55.207031 236.917969 55.195312 236.757812 C 56.074219 236.703125 56.953125 236.625 57.820312 236.5 C 58.800781 236.359375 59.882812 236.199219 60.589844 235.429688 C 61.25 234.710938 61.449219 233.640625 61.21875 232.703125 C 60.933594 231.535156 60.117188 230.664062 59.09375 230.082031 C 58.882812 229.957031 58.5625 230.203125 58.699219 230.441406 C 58.953125 230.894531 59.332031 231.425781 59.640625 231.992188 C 59.589844 232.042969 59.535156 232.089844 59.453125 232.132812 C 59.296875 232.207031 59.140625 232.261719 58.964844 232.273438 C 58.636719 232.296875 58.324219 232.164062 58.085938 231.945312 C 57.445312 231.355469 57.453125 230.386719 57.652344 229.605469 C 57.746094 229.25 57.878906 228.878906 58.136719 228.605469 C 58.390625 228.335938 58.738281 228.230469 59.105469 228.234375 C 59.53125 228.234375 59.949219 228.351562 60.347656 228.488281 C 60.667969 228.597656 61.003906 228.746094 61.257812 228.976562 C 61.597656 229.277344 61.738281 229.648438 61.671875 230.097656 C 61.601562 230.644531 61.253906 231.082031 61.046875 231.574219 C 60.886719 231.953125 61.449219 232.234375 61.703125 231.949219 C 62.519531 231.03125 63.054688 229.5625 62.183594 228.507812 C 61.84375 228.101562 61.347656 227.859375 60.863281 227.675781 C 60.328125 227.476562 59.746094 227.332031 59.175781 227.335938 C 58.578125 227.335938 57.976562 227.527344 57.542969 227.957031 C 57.15625 228.34375 56.914062 228.851562 56.777344 229.375 C 56.492188 230.515625 56.550781 231.886719 57.550781 232.664062 C 58.035156 233.039062 58.710938 233.195312 59.273438 232.90625 C 59.507812 232.789062 59.699219 232.597656 59.835938 232.378906 C 60.167969 233.101562 60.308594 233.859375 59.851562 234.546875 C 59.417969 235.195312 58.476562 235.261719 57.777344 235.363281 C 56.894531 235.496094 56.007812 235.578125 55.117188 235.625 C 54.984375 233.777344 54.855469 231.929688 54.730469 230.082031 C 54.761719 230.066406 54.792969 230.058594 54.820312 230.042969 C 54.886719 230.015625 54.890625 229.898438 54.8125 229.886719 C 54.78125 229.882812 54.75 229.886719 54.714844 229.878906 C 54.59375 228.109375 54.476562 226.335938 54.355469 224.566406 C 55.015625 224.511719 55.671875 224.441406 56.324219 224.347656 C 57.300781 224.207031 58.382812 224.050781 59.09375 223.28125 C 59.753906 222.558594 59.953125 221.492188 59.722656 220.550781 C 59.433594 219.386719 58.617188 218.511719 57.597656 217.929688 C 57.382812 217.804688 57.066406 218.054688 57.199219 218.292969 C 57.453125 218.746094 57.835938 219.277344 58.140625 219.839844 C 58.09375 219.890625 58.039062 219.941406 57.957031 219.980469 C 57.800781 220.058594 57.640625 220.109375 57.464844 220.121094 C 57.136719 220.144531 56.824219 220.015625 56.589844 219.792969 C 55.949219 219.207031 55.953125 218.238281 56.15625 217.453125 C 56.25 217.097656 56.382812 216.730469 56.636719 216.457031 C 56.894531 216.183594 57.242188 216.078125 57.609375 216.082031 C 58.035156 216.085938 58.453125 216.199219 58.847656 216.335938 C 59.171875 216.449219 59.507812 216.597656 59.761719 216.824219 C 60.097656 217.128906 60.238281 217.5 60.175781 217.949219 C 60.105469 218.488281 59.757812 218.933594 59.546875 219.421875 C 59.390625 219.800781 59.953125 220.085938 60.207031 219.796875 C 61.023438 218.882812 61.558594 217.414062 60.6875 216.359375 C 60.347656 215.953125 59.851562 215.707031 59.363281 215.523438 C 58.832031 215.324219 58.25 215.179688 57.679688 215.183594 C 57.078125 215.1875 56.476562 215.378906 56.042969 215.808594 C 55.660156 216.191406 55.414062 216.699219 55.28125 217.226562 C 54.996094 218.363281 55.054688 219.734375 56.054688 220.515625 C 56.535156 220.886719 57.214844 221.042969 57.777344 220.757812 C 58.011719 220.636719 58.199219 220.449219 58.335938 220.222656 C 58.671875 220.953125 58.8125 221.707031 58.351562 222.398438 C 57.917969 223.042969 56.980469 223.109375 56.277344 223.214844 C 55.617188 223.3125 54.949219 223.378906 54.285156 223.425781 C 54.152344 221.433594 54.019531 219.433594 53.890625 217.441406 C 53.773438 215.53125 53.65625 213.621094 53.542969 211.714844 C 54.472656 211.664062 55.402344 211.582031 56.324219 211.449219 C 57.300781 211.304688 58.382812 211.152344 59.09375 210.378906 C 59.753906 209.660156 59.953125 208.59375 59.722656 207.652344 C 59.433594 206.484375 58.617188 205.613281 57.597656 205.03125 C 57.382812 204.90625 57.066406 205.15625 57.199219 205.390625 C 57.453125 205.847656 57.835938 206.378906 58.140625 206.941406 C 58.09375 206.992188 58.039062 207.039062 57.957031 207.078125 C 57.800781 207.160156 57.640625 207.210938 57.464844 207.222656 C 57.136719 207.246094 56.824219 207.113281 56.589844 206.894531 C 55.949219 206.304688 55.953125 205.339844 56.15625 204.554688 C 56.25 204.199219 56.382812 203.832031 56.636719 203.558594 C 56.894531 203.285156 57.242188 203.179688 57.609375 203.183594 C 58.035156 203.183594 58.453125 203.296875 58.847656 203.4375 C 59.171875 203.550781 59.507812 203.699219 59.761719 203.925781 C 60.097656 204.226562 60.238281 204.601562 60.175781 205.050781 C 60.105469 205.589844 59.757812 206.03125 59.546875 206.519531 C 59.390625 206.902344 59.953125 207.183594 60.207031 206.894531 C 61.023438 205.980469 61.558594 204.511719 60.6875 203.460938 C 60.347656 203.050781 59.851562 202.808594 59.363281 202.625 C 58.832031 202.421875 58.25 202.28125 57.679688 202.285156 C 57.078125 202.289062 56.476562 202.480469 56.042969 202.90625 C 55.660156 203.292969 55.414062 203.800781 55.28125 204.324219 C 54.996094 205.464844 55.054688 206.835938 56.054688 207.617188 C 56.535156 207.988281 57.214844 208.144531 57.777344 207.859375 C 58.011719 207.738281 58.199219 207.546875 58.335938 207.324219 C 58.671875 208.050781 58.8125 208.808594 58.351562 209.5 C 57.917969 210.144531 56.980469 210.210938 56.277344 210.316406 C 55.347656 210.453125 54.414062 210.539062 53.472656 210.585938 C 53.367188 208.746094 53.257812 206.90625 53.148438 205.0625 C 53.207031 205.039062 53.265625 205.019531 53.324219 204.996094 C 53.390625 204.96875 53.390625 204.851562 53.316406 204.835938 C 53.253906 204.828125 53.195312 204.832031 53.132812 204.820312 C 53.03125 203.027344 52.929688 201.234375 52.832031 199.441406 C 53.246094 199.398438 53.660156 199.359375 54.074219 199.296875 C 55.054688 199.15625 56.136719 199 56.847656 198.230469 C 57.507812 197.511719 57.707031 196.441406 57.476562 195.503906 C 57.1875 194.332031 56.371094 193.464844 55.351562 192.878906 C 55.136719 192.757812 54.820312 193.003906 54.953125 193.238281 C 55.207031 193.691406 55.589844 194.226562 55.894531 194.789062 C 55.84375 194.84375 55.792969 194.890625 55.710938 194.929688 C 55.554688 195.007812 55.394531 195.058594 55.21875 195.074219 C 54.890625 195.09375 54.578125 194.960938 54.34375 194.742188 C 53.703125 194.15625 53.707031 193.1875 53.910156 192.402344 C 54.003906 192.050781 54.132812 191.675781 54.390625 191.40625 C 54.644531 191.132812 54.996094 191.03125 55.363281 191.03125 C 55.789062 191.035156 56.207031 191.148438 56.601562 191.289062 C 56.925781 191.398438 57.261719 191.546875 57.515625 191.777344 C 57.851562 192.074219 57.992188 192.445312 57.929688 192.898438 C 57.859375 193.441406 57.511719 193.878906 57.300781 194.371094 C 57.144531 194.75 57.707031 195.03125 57.960938 194.746094 C 58.777344 193.832031 59.3125 192.363281 58.441406 191.304688 C 58.101562 190.898438 57.605469 190.65625 57.117188 190.472656 C 56.585938 190.273438 56.003906 190.128906 55.433594 190.132812 C 54.832031 190.136719 54.230469 190.328125 53.796875 190.757812 C 53.414062 191.140625 53.167969 191.652344 53.035156 192.175781 C 52.75 193.3125 52.808594 194.683594 53.808594 195.460938 C 54.289062 195.835938 54.96875 195.992188 55.53125 195.707031 C 55.765625 195.589844 55.953125 195.398438 56.089844 195.175781 C 56.425781 195.902344 56.566406 196.65625 56.105469 197.347656 C 55.671875 197.996094 54.734375 198.058594 54.03125 198.164062 C 53.609375 198.226562 53.191406 198.273438 52.765625 198.316406 C 52.554688 194.414062 52.351562 190.511719 52.15625 186.613281 C 52.796875 186.558594 53.4375 186.488281 54.074219 186.398438 C 55.054688 186.257812 56.136719 186.101562 56.847656 185.332031 C 57.507812 184.609375 57.707031 183.539062 57.476562 182.605469 C 57.1875 181.433594 56.371094 180.566406 55.351562 179.980469 C 55.136719 179.859375 54.820312 180.105469 54.953125 180.339844 C 55.207031 180.792969 55.589844 181.328125 55.894531 181.886719 C 55.84375 181.941406 55.792969 181.992188 55.710938 182.03125 C 55.554688 182.105469 55.394531 182.160156 55.21875 182.171875 C 54.890625 182.195312 54.578125 182.0625 54.34375 181.84375 C 53.703125 181.257812 53.707031 180.289062 53.910156 179.503906 C 54.003906 179.148438 54.132812 178.777344 54.390625 178.507812 C 54.644531 178.234375 54.996094 178.128906 55.363281 178.132812 C 55.789062 178.136719 56.207031 178.25 56.601562 178.386719 C 56.925781 178.5 57.261719 178.648438 57.515625 178.875 C 57.851562 179.175781 57.992188 179.546875 57.929688 180 C 57.859375 180.539062 57.511719 180.980469 57.300781 181.472656 C 57.144531 181.851562 57.707031 182.132812 57.960938 181.847656 C 58.777344 180.929688 59.3125 179.460938 58.441406 178.40625 C 58.101562 178 57.605469 177.757812 57.117188 177.574219 C 56.585938 177.371094 56.003906 177.230469 55.433594 177.234375 C 54.832031 177.238281 54.230469 177.425781 53.796875 177.859375 C 53.414062 178.242188 53.167969 178.75 53.035156 179.277344 C 52.75 180.414062 52.808594 181.785156 53.808594 182.5625 C 54.289062 182.9375 54.96875 183.09375 55.53125 182.804688 C 55.765625 182.6875 55.953125 182.5 56.089844 182.273438 C 56.425781 183.003906 56.566406 183.757812 56.105469 184.449219 C 55.671875 185.097656 54.734375 185.160156 54.03125 185.261719 C 53.390625 185.355469 52.75 185.425781 52.101562 185.472656 C 51.980469 182.957031 51.855469 180.449219 51.738281 177.933594 C 51.675781 176.542969 51.621094 175.144531 51.558594 173.75 C 52.398438 173.695312 53.238281 173.621094 54.074219 173.5 C 55.054688 173.355469 56.136719 173.199219 56.847656 172.433594 C 57.507812 171.710938 57.707031 170.640625 57.476562 169.707031 C 57.1875 168.535156 56.371094 167.664062 55.351562 167.078125 C 55.136719 166.960938 54.820312 167.207031 54.953125 167.441406 C 55.207031 167.894531 55.589844 168.425781 55.894531 168.988281 C 55.84375 169.042969 55.792969 169.089844 55.710938 169.132812 C 55.554688 169.207031 55.394531 169.257812 55.21875 169.273438 C 54.890625 169.296875 54.578125 169.164062 54.34375 168.945312 C 53.703125 168.355469 53.707031 167.390625 53.910156 166.605469 C 54.003906 166.25 54.132812 165.878906 54.390625 165.609375 C 54.644531 165.332031 54.996094 165.230469 55.363281 165.234375 C 55.789062 165.234375 56.207031 165.351562 56.601562 165.488281 C 56.925781 165.597656 57.261719 165.75 57.515625 165.976562 C 57.851562 166.277344 57.992188 166.648438 57.929688 167.101562 C 57.859375 167.640625 57.511719 168.082031 57.300781 168.574219 C 57.144531 168.953125 57.707031 169.234375 57.960938 168.949219 C 58.777344 168.03125 59.3125 166.5625 58.441406 165.507812 C 58.101562 165.101562 57.605469 164.859375 57.117188 164.675781 C 56.585938 164.472656 56.003906 164.328125 55.433594 164.332031 C 54.832031 164.339844 54.230469 164.527344 53.796875 164.957031 C 53.414062 165.34375 53.167969 165.851562 53.035156 166.378906 C 52.75 167.515625 52.808594 168.882812 53.808594 169.664062 C 54.289062 170.035156 54.96875 170.195312 55.53125 169.90625 C 55.765625 169.789062 55.953125 169.597656 56.089844 169.375 C 56.425781 170.101562 56.566406 170.859375 56.105469 171.546875 C 55.671875 172.195312 54.734375 172.257812 54.03125 172.363281 C 53.195312 172.488281 52.351562 172.566406 51.507812 172.617188 C 51.339844 168.703125 51.175781 164.796875 51.027344 160.882812 C 52.050781 160.835938 53.066406 160.742188 54.074219 160.597656 C 55.054688 160.457031 56.136719 160.300781 56.847656 159.53125 C 57.507812 158.8125 57.707031 157.742188 57.476562 156.804688 C 57.1875 155.632812 56.371094 154.765625 55.351562 154.179688 C 55.136719 154.058594 54.820312 154.304688 54.953125 154.539062 C 55.207031 154.996094 55.589844 155.527344 55.894531 156.089844 C 55.84375 156.144531 55.792969 156.191406 55.710938 156.230469 C 55.554688 156.308594 55.394531 156.359375 55.21875 156.375 C 54.890625 156.398438 54.578125 156.265625 54.34375 156.046875 C 53.703125 155.457031 53.707031 154.492188 53.910156 153.703125 C 54.003906 153.351562 54.132812 152.976562 54.390625 152.710938 C 54.644531 152.433594 54.996094 152.332031 55.363281 152.332031 C 55.789062 152.335938 56.207031 152.453125 56.601562 152.589844 C 56.925781 152.699219 57.261719 152.851562 57.515625 153.078125 C 57.851562 153.375 57.992188 153.75 57.929688 154.199219 C 57.859375 154.742188 57.511719 155.179688 57.300781 155.671875 C 57.144531 156.050781 57.707031 156.335938 57.960938 156.046875 C 58.777344 155.132812 59.3125 153.664062 58.441406 152.609375 C 58.101562 152.199219 57.605469 151.957031 57.117188 151.777344 C 56.585938 151.574219 56.003906 151.429688 55.433594 151.433594 C 54.832031 151.441406 54.230469 151.628906 53.796875 152.058594 C 53.414062 152.441406 53.167969 152.953125 53.035156 153.476562 C 52.75 154.617188 52.808594 155.984375 53.808594 156.765625 C 54.289062 157.136719 54.96875 157.296875 55.53125 157.007812 C 55.765625 156.890625 55.953125 156.699219 56.089844 156.476562 C 56.425781 157.203125 56.566406 157.960938 56.105469 158.648438 C 55.671875 159.296875 54.734375 159.359375 54.03125 159.464844 C 53.074219 159.605469 52.101562 159.695312 51.128906 159.742188 C 51.082031 159.742188 51.03125 159.742188 50.984375 159.746094 C 50.964844 159.195312 50.941406 158.648438 50.921875 158.101562 C 50.875 156.820312 50.828125 155.539062 50.78125 154.257812 C 50.882812 154.222656 50.980469 154.183594 51.078125 154.144531 C 51.140625 154.121094 51.144531 154 51.070312 153.992188 C 50.96875 153.972656 50.871094 153.972656 50.773438 153.964844 C 50.703125 152.074219 50.636719 150.1875 50.570312 148.296875 C 50.570312 148.203125 50.570312 148.105469 50.566406 148.007812 C 51.738281 147.972656 52.910156 147.867188 54.074219 147.699219 C 55.054688 147.558594 56.136719 147.402344 56.847656 146.632812 C 57.507812 145.910156 57.707031 144.839844 57.476562 143.90625 C 57.1875 142.734375 56.371094 141.867188 55.351562 141.28125 C 55.136719 141.160156 54.820312 141.40625 54.953125 141.640625 C 55.207031 142.09375 55.589844 142.628906 55.894531 143.191406 C 55.84375 143.242188 55.792969 143.292969 55.710938 143.332031 C 55.554688 143.410156 55.394531 143.460938 55.21875 143.472656 C 54.890625 143.496094 54.578125 143.363281 54.34375 143.144531 C 53.703125 142.558594 53.707031 141.589844 53.910156 140.804688 C 54.003906 140.453125 54.132812 140.078125 54.390625 139.808594 C 54.644531 139.535156 54.996094 139.433594 55.363281 139.433594 C 55.789062 139.4375 56.207031 139.550781 56.601562 139.6875 C 56.925781 139.800781 57.261719 139.949219 57.515625 140.175781 C 57.851562 140.476562 57.992188 140.847656 57.929688 141.300781 C 57.859375 141.839844 57.511719 142.28125 57.300781 142.773438 C 57.144531 143.152344 57.707031 143.433594 57.960938 143.148438 C 58.777344 142.234375 59.3125 140.765625 58.441406 139.707031 C 58.101562 139.300781 57.605469 139.058594 57.117188 138.875 C 56.585938 138.675781 56.003906 138.53125 55.433594 138.535156 C 54.832031 138.539062 54.230469 138.726562 53.796875 139.160156 C 53.414062 139.542969 53.167969 140.050781 53.035156 140.578125 C 52.75 141.714844 52.808594 143.085938 53.808594 143.863281 C 54.289062 144.238281 54.96875 144.394531 55.53125 144.105469 C 55.765625 143.988281 55.953125 143.800781 56.089844 143.578125 C 56.425781 144.304688 56.566406 145.0625 56.105469 145.75 C 55.671875 146.398438 54.734375 146.460938 54.03125 146.5625 C 53.074219 146.707031 52.101562 146.796875 51.128906 146.84375 C 50.933594 146.851562 50.734375 146.851562 50.535156 146.855469 C 50.5 145.027344 50.527344 143.199219 50.722656 141.382812 C 50.839844 141.335938 50.960938 141.292969 51.078125 141.242188 C 51.140625 141.21875 51.144531 141.101562 51.070312 141.089844 C 50.964844 141.074219 50.863281 141.074219 50.757812 141.0625 C 50.789062 140.796875 50.804688 140.527344 50.847656 140.261719 C 51.222656 137.738281 52.039062 135.222656 53.53125 133.128906 C 53.792969 132.765625 53.226562 132.503906 52.976562 132.816406 C 51.046875 135.210938 50.167969 138.070312 49.792969 141.042969 C 48.140625 141.136719 46.503906 141.835938 45.105469 142.652344 C 44.296875 143.128906 43.457031 143.722656 43.109375 144.632812 C 42.773438 145.515625 43.121094 146.460938 43.835938 147.039062 C 44.691406 147.726562 45.832031 147.8125 46.890625 147.90625 C 47.777344 147.984375 48.667969 148.011719 49.558594 148.015625 C 49.558594 148.078125 49.558594 148.136719 49.5625 148.199219 C 49.613281 150.113281 49.679688 152.027344 49.742188 153.945312 C 48.109375 154.050781 46.492188 154.746094 45.105469 155.554688 C 44.296875 156.027344 43.457031 156.621094 43.109375 157.53125 C 42.773438 158.414062 43.121094 159.359375 43.835938 159.941406 C 44.691406 160.628906 45.832031 160.710938 46.890625 160.808594 C 47.917969 160.898438 48.949219 160.929688 49.980469 160.914062 C 50.054688 162.886719 50.128906 164.851562 50.207031 166.824219 C 48.417969 166.808594 46.625 167.566406 45.105469 168.453125 C 44.296875 168.925781 43.457031 169.523438 43.109375 170.429688 C 42.773438 171.316406 43.121094 172.257812 43.835938 172.839844 C 44.691406 173.527344 45.832031 173.613281 46.890625 173.707031 C 48.085938 173.816406 49.292969 173.847656 50.496094 173.8125 C 50.578125 175.796875 50.664062 177.777344 50.75 179.761719 C 48.785156 179.566406 46.777344 180.375 45.105469 181.351562 C 44.296875 181.828125 43.457031 182.421875 43.109375 183.328125 C 42.773438 184.214844 43.121094 185.160156 43.835938 185.738281 C 44.691406 186.425781 45.832031 186.511719 46.890625 186.605469 C 48.089844 186.714844 49.296875 186.75 50.5 186.714844 C 50.691406 186.707031 50.886719 186.6875 51.074219 186.679688 C 51.261719 190.585938 51.457031 194.496094 51.667969 198.402344 C 51.492188 198.414062 51.308594 198.429688 51.128906 198.441406 C 50.167969 198.488281 49.203125 198.484375 48.242188 198.4375 C 47.320312 198.394531 46.332031 198.371094 45.4375 198.117188 C 44.808594 197.9375 44.023438 197.414062 44.191406 196.648438 C 44.347656 195.933594 45.164062 195.441406 45.738281 195.089844 C 47.414062 194.070312 49.28125 193.574219 51.078125 192.84375 C 51.140625 192.816406 51.144531 192.699219 51.070312 192.6875 C 49.003906 192.363281 46.867188 193.222656 45.105469 194.25 C 44.296875 194.726562 43.457031 195.320312 43.109375 196.230469 C 42.773438 197.113281 43.121094 198.058594 43.835938 198.636719 C 44.691406 199.324219 45.832031 199.410156 46.890625 199.503906 C 48.089844 199.613281 49.296875 199.648438 50.5 199.613281 C 50.910156 199.601562 51.320312 199.570312 51.730469 199.539062 C 51.824219 201.289062 51.925781 203.039062 52.027344 204.792969 C 50.378906 204.890625 48.746094 205.585938 47.351562 206.40625 C 46.542969 206.875 45.703125 207.472656 45.355469 208.382812 C 45.019531 209.265625 45.367188 210.210938 46.082031 210.785156 C 46.9375 211.476562 48.082031 211.5625 49.136719 211.65625 C 50.230469 211.753906 51.328125 211.785156 52.433594 211.761719 C 52.550781 213.738281 52.667969 215.71875 52.792969 217.691406 C 50.890625 217.570312 48.964844 218.359375 47.351562 219.304688 C 46.542969 219.773438 45.703125 220.371094 45.355469 221.28125 C 45.019531 222.164062 45.367188 223.109375 46.082031 223.6875 C 46.9375 224.378906 48.082031 224.460938 49.136719 224.554688 C 50.335938 224.664062 51.542969 224.699219 52.746094 224.660156 C 52.910156 224.660156 53.074219 224.640625 53.238281 224.632812 C 53.339844 226.144531 53.4375 227.652344 53.539062 229.164062 C 53.550781 229.390625 53.570312 229.613281 53.585938 229.839844 C 51.917969 229.921875 50.265625 230.628906 48.847656 231.453125 C 48.042969 231.925781 47.199219 232.519531 46.855469 233.433594 C 46.519531 234.3125 46.863281 235.261719 47.578125 235.835938 C 48.4375 236.527344 49.578125 236.613281 50.632812 236.707031 C 51.777344 236.808594 52.925781 236.839844 54.074219 236.8125 C 54.132812 237.683594 54.191406 238.554688 54.257812 239.421875 C 54.4375 241.839844 54.738281 244.613281 56.695312 246.300781 C 58.757812 248.082031 61.683594 248.019531 64.25 248.007812 C 67.46875 247.996094 70.691406 247.957031 73.914062 247.898438 C 80.515625 247.773438 87.109375 247.554688 93.703125 247.242188 C 100.25 246.929688 106.785156 246.527344 113.320312 246.011719 C 118.292969 245.625 123.972656 244.988281 127.496094 241.027344 C 131.144531 236.929688 131.230469 231.015625 131.558594 225.84375 C 131.984375 219.105469 132.40625 212.367188 132.761719 205.628906 C 132.777344 205.324219 132.789062 205.019531 132.804688 204.71875 C 133.089844 204.734375 133.375 204.734375 133.644531 204.75 C 134.316406 204.792969 134.988281 204.832031 135.660156 204.890625 C 136.839844 204.996094 138.089844 205.242188 139.28125 205.089844 C 139.1875 205.472656 139.074219 205.824219 139.03125 206.230469 C 138.980469 206.726562 138.953125 207.222656 138.9375 207.722656 C 138.90625 208.6875 138.886719 209.652344 138.871094 210.617188 C 138.84375 212.582031 138.828125 214.542969 138.8125 216.503906 C 138.800781 218.40625 138.804688 220.3125 138.789062 222.214844 C 138.777344 223.882812 138.722656 225.671875 137.9375 227.1875 C 137.5625 227.914062 136.992188 228.570312 136.289062 229.007812 C 135.9375 229.222656 135.5625 229.390625 135.167969 229.515625 C 134.765625 229.636719 134.339844 229.816406 133.917969 229.804688 C 133.730469 229.804688 133.675781 230.050781 133.847656 230.113281 C 134.171875 230.230469 134.476562 230.386719 134.824219 230.410156 C 135.226562 230.433594 135.617188 230.351562 135.996094 230.214844 C 136.738281 229.945312 137.40625 229.457031 137.941406 228.878906 C 139.121094 227.59375 139.59375 225.894531 139.757812 224.195312 C 139.949219 222.238281 139.875 220.246094 139.878906 218.28125 C 139.886719 216.167969 139.902344 214.050781 139.894531 211.933594 C 139.886719 210.78125 139.894531 209.628906 139.867188 208.476562 C 139.855469 207.910156 139.84375 207.347656 139.8125 206.785156 C 139.792969 206.476562 139.773438 206.171875 139.738281 205.867188 C 139.699219 205.578125 139.601562 205.332031 139.53125 205.058594 C 139.710938 205.027344 139.789062 204.75 139.613281 204.660156 C 138.464844 204.058594 136.992188 204.058594 135.726562 204.007812 C 135.050781 203.984375 134.378906 203.972656 133.703125 203.988281 C 133.421875 203.996094 133.128906 203.996094 132.839844 204.015625 C 133.34375 194.132812 133.695312 184.238281 133.699219 174.34375 C 134.164062 174.441406 134.675781 174.421875 135.140625 174.453125 C 135.816406 174.492188 136.484375 174.535156 137.15625 174.59375 C 138.339844 174.695312 139.589844 174.941406 140.777344 174.792969 C 140.683594 175.175781 140.574219 175.527344 140.53125 175.929688 C 140.476562 176.425781 140.449219 176.925781 140.4375 177.425781 C 140.402344 178.390625 140.382812 179.355469 140.367188 180.320312 C 140.339844 182.28125 140.324219 184.242188 140.308594 186.207031 C 140.296875 188.109375 140.300781 190.011719 140.285156 191.914062 C 140.273438 193.585938 140.21875 195.371094 139.4375 196.890625 C 139.0625 197.617188 138.488281 198.273438 137.785156 198.710938 C 137.433594 198.925781 137.0625 199.089844 136.667969 199.210938 C 136.261719 199.339844 135.839844 199.515625 135.414062 199.507812 C 135.230469 199.503906 135.171875 199.753906 135.347656 199.816406 C 135.667969 199.929688 135.976562 200.085938 136.320312 200.109375 C 136.722656 200.136719 137.117188 200.050781 137.492188 199.914062 C 138.238281 199.648438 138.902344 199.160156 139.4375 198.582031 C 140.621094 197.296875 141.089844 195.601562 141.253906 193.894531 C 141.445312 191.941406 141.371094 189.945312 141.378906 187.984375 C 141.382812 185.867188 141.402344 183.75 141.394531 181.632812 " fill-opacity="1" fill-rule="nonzero"/></g><path fill="#ffffff" d="M 83.625 178.238281 C 83.625 178.238281 83.625 178.238281 83.625 178.234375 C 83.632812 178.222656 83.640625 178.207031 83.648438 178.195312 C 83.644531 178.210938 83.636719 178.226562 83.628906 178.242188 C 83.625 178.242188 83.625 178.242188 83.625 178.238281 Z M 84.335938 200.03125 C 84.644531 207.339844 84.632812 214.664062 84.3125 221.972656 C 84.230469 223.816406 84.132812 225.660156 84.003906 227.5 C 83.945312 228.320312 83.90625 229.152344 83.808594 229.96875 C 83.742188 230.539062 83.636719 231.15625 83.328125 231.644531 C 83.023438 232.128906 82.53125 232.339844 81.980469 232.113281 C 81.308594 231.835938 80.9375 231.148438 80.765625 230.472656 C 80.5625 229.671875 80.53125 228.824219 80.460938 228 C 80.382812 227.085938 80.3125 226.171875 80.246094 225.257812 C 79.734375 217.988281 79.617188 210.683594 79.886719 203.402344 C 80.152344 196.136719 80.78125 188.886719 81.636719 181.667969 C 81.679688 181.296875 81.707031 180.925781 81.730469 180.550781 C 81.765625 180.566406 81.796875 180.585938 81.832031 180.597656 C 82.144531 180.6875 82.46875 180.613281 82.738281 180.449219 C 83.515625 186.953125 84.0625 193.484375 84.335938 200.03125 Z M 76.464844 163.410156 C 75.671875 158.9375 75.949219 154.027344 78.164062 149.980469 C 79.117188 148.242188 80.632812 146.144531 82.777344 145.894531 C 83.75 145.785156 84.464844 146.171875 84.996094 146.789062 C 84.476562 146.875 83.984375 147.136719 83.617188 147.507812 C 81.96875 147.890625 80.746094 149.175781 79.980469 150.707031 C 79.003906 152.675781 78.558594 154.949219 78.199219 157.105469 C 77.796875 159.5 77.617188 161.9375 77.667969 164.363281 C 77.703125 166.070312 77.859375 167.773438 78.105469 169.457031 C 77.40625 167.484375 76.824219 165.46875 76.464844 163.410156 Z M 83.378906 177.445312 C 83.226562 177.34375 83.015625 177.34375 82.828125 177.429688 C 82.773438 177.152344 82.730469 176.875 82.679688 176.59375 C 83.265625 174.878906 83.835938 173.160156 84.300781 171.402344 C 84.863281 169.253906 85.34375 167.082031 85.75 164.898438 C 86.40625 161.332031 86.835938 157.722656 87.054688 154.101562 C 87.445312 157.402344 87.445312 160.753906 87.070312 164.050781 C 86.761719 166.726562 86.222656 169.371094 85.4375 171.945312 C 85.042969 173.226562 84.589844 174.484375 84.09375 175.726562 C 83.867188 176.304688 83.605469 176.867188 83.378906 177.445312 Z M 82.472656 150.007812 C 81.421875 154.324219 80.8125 158.746094 80.65625 163.183594 C 80.488281 168.007812 80.859375 172.851562 81.738281 177.59375 C 81.726562 177.625 81.71875 177.652344 81.710938 177.679688 C 81.683594 177.757812 81.691406 177.820312 81.71875 177.871094 C 81.675781 177.898438 81.632812 177.925781 81.59375 177.957031 C 81.421875 177.496094 81.25 177.042969 81.089844 176.582031 C 80.714844 175.496094 80.371094 174.40625 80.085938 173.292969 C 79.523438 171.128906 79.148438 168.910156 78.964844 166.679688 C 78.589844 162.195312 78.980469 157.574219 80.222656 153.242188 C 80.667969 151.699219 81.34375 149.917969 82.757812 149.015625 C 82.644531 149.34375 82.554688 149.675781 82.472656 150.007812 Z M 86.027344 148.769531 C 86.128906 149.070312 86.207031 149.371094 86.277344 149.652344 C 86.289062 150.335938 86.238281 151.027344 86.21875 151.6875 C 86.117188 155.820312 85.71875 159.945312 85.042969 164.023438 C 84.660156 166.320312 84.183594 168.601562 83.621094 170.859375 C 83.25 172.335938 82.875 173.816406 82.449219 175.285156 C 81.292969 167.960938 81.40625 160.453125 82.796875 153.164062 C 82.996094 152.113281 83.21875 151.066406 83.480469 150.027344 C 83.601562 149.542969 83.742188 148.972656 84.019531 148.519531 C 84.695312 148.410156 85.382812 148.515625 86.027344 148.769531 Z M 88.246094 150.402344 C 89.632812 152.101562 90.132812 154.433594 90.339844 156.5625 C 90.578125 158.992188 90.332031 161.472656 89.78125 163.84375 C 89.175781 166.445312 88.21875 168.941406 87.089844 171.351562 C 86.507812 172.589844 85.871094 173.792969 85.242188 175.003906 C 85.15625 175.164062 85.078125 175.328125 84.992188 175.488281 C 85.355469 174.644531 85.699219 173.792969 86 172.921875 C 86.839844 170.511719 87.476562 168.015625 87.875 165.488281 C 88.664062 160.421875 88.558594 155.199219 87.523438 150.171875 C 87.484375 149.972656 87.4375 149.765625 87.390625 149.5625 C 87.710938 149.8125 88 150.097656 88.246094 150.402344 Z M 85.773438 175.507812 C 86.429688 174.40625 87.03125 173.269531 87.609375 172.128906 C 88.75 169.871094 89.753906 167.53125 90.445312 165.089844 C 91.144531 162.625 91.539062 160.035156 91.441406 157.46875 C 91.355469 155.148438 90.957031 152.675781 89.765625 150.644531 C 89.121094 149.554688 88.183594 148.605469 87.0625 148.019531 C 86.976562 147.761719 86.84375 147.527344 86.671875 147.328125 C 86.183594 146.273438 85.464844 145.375 84.285156 144.980469 C 82.085938 144.230469 79.851562 145.839844 78.523438 147.449219 C 75.429688 151.207031 74.609375 156.527344 74.988281 161.238281 C 75.234375 164.261719 76.023438 167.214844 77.042969 170.0625 C 77.570312 171.535156 78.160156 172.988281 78.78125 174.421875 C 79.15625 175.28125 79.53125 176.140625 79.972656 176.960938 C 80.246094 177.730469 80.539062 178.496094 80.917969 179.21875 C 80.90625 179.335938 80.90625 179.453125 80.921875 179.570312 C 80.960938 179.863281 81.121094 180.117188 81.332031 180.304688 C 81.027344 181.660156 80.742188 183.015625 80.507812 184.390625 C 80.183594 186.289062 79.960938 188.214844 79.738281 190.128906 C 79.296875 193.902344 78.984375 197.679688 78.78125 201.46875 C 78.375 209.0625 78.464844 216.683594 78.964844 224.265625 C 79.085938 226.125 79.191406 227.988281 79.414062 229.835938 C 79.59375 231.308594 80.257812 232.980469 81.894531 233.296875 C 83.300781 233.566406 84.339844 232.527344 84.714844 231.261719 C 84.90625 230.609375 84.96875 229.929688 85.011719 229.25 C 85.078125 228.300781 85.136719 227.347656 85.191406 226.398438 C 85.660156 218.757812 85.789062 211.097656 85.570312 203.449219 C 85.355469 195.808594 84.808594 188.183594 83.914062 180.597656 C 83.859375 180.136719 83.800781 179.675781 83.742188 179.214844 C 83.792969 179.015625 83.800781 178.8125 83.765625 178.617188 C 84.0625 178.171875 84.378906 177.746094 84.667969 177.292969 C 85.042969 176.707031 85.417969 176.113281 85.773438 175.507812 " fill-opacity="1" fill-rule="nonzero"/><path fill="#ffffff" d="M 106.933594 198.257812 C 106.972656 198.585938 107.441406 198.453125 107.480469 198.191406 C 107.761719 196.390625 107.816406 194.59375 107.871094 192.773438 C 107.929688 190.96875 107.960938 189.164062 108.003906 187.355469 C 108.085938 183.773438 108.175781 180.191406 108.257812 176.613281 C 108.425781 169.449219 108.582031 162.285156 108.738281 155.121094 C 108.761719 154.21875 108.78125 153.316406 108.800781 152.410156 C 108.816406 151.808594 108.882812 151.171875 108.726562 150.578125 C 108.417969 149.449219 107.484375 148.777344 106.320312 148.777344 C 105.128906 148.773438 104.160156 149.480469 103.6875 150.546875 C 103.402344 151.1875 103.308594 151.921875 103.160156 152.597656 C 102.972656 153.445312 102.796875 154.289062 102.636719 155.136719 C 101.347656 161.960938 100.929688 168.917969 101.050781 175.855469 C 101.171875 182.726562 101.878906 189.546875 102.878906 196.34375 C 103.007812 197.199219 103.109375 198.0625 103.21875 198.921875 C 103.242188 199.097656 103.519531 199.023438 103.496094 198.855469 C 103.101562 195.566406 102.886719 192.269531 102.625 188.972656 C 102.359375 185.625 102.152344 182.269531 102.054688 178.917969 C 101.855469 172.289062 102.058594 165.644531 103.023438 159.074219 C 103.265625 157.429688 103.554688 155.789062 103.894531 154.160156 C 104.066406 153.3125 104.261719 152.464844 104.464844 151.617188 C 104.578125 151.167969 104.699219 150.71875 105.007812 150.359375 C 105.664062 149.59375 107.078125 149.617188 107.539062 150.574219 C 107.746094 151.007812 107.722656 151.472656 107.710938 151.941406 C 107.6875 152.8125 107.667969 153.683594 107.648438 154.554688 C 107.488281 161.441406 107.324219 168.324219 107.171875 175.203125 C 107.09375 178.628906 107.019531 182.054688 106.945312 185.484375 C 106.867188 188.90625 106.710938 192.335938 106.765625 195.757812 C 106.777344 196.597656 106.839844 197.425781 106.933594 198.257812 " fill-opacity="1" fill-rule="nonzero"/><path fill="#ffffff" d="M 97.320312 213.085938 C 96.734375 215.4375 96.371094 217.851562 96.417969 220.28125 C 96.464844 222.375 96.699219 224.621094 97.625 226.527344 C 98.441406 228.210938 99.886719 229.492188 101.785156 229.726562 C 103.898438 229.992188 105.902344 228.878906 107.3125 227.375 C 108.855469 225.730469 109.914062 223.574219 110.597656 221.4375 C 111.292969 219.28125 111.613281 217 111.625 214.730469 C 111.632812 212.015625 111.210938 209.316406 110.550781 206.6875 C 110.210938 205.308594 109.804688 203.949219 109.363281 202.597656 C 109.144531 201.921875 108.929688 201.25 108.667969 200.59375 C 108.375 199.871094 107.917969 199.269531 107.601562 198.558594 C 107.472656 198.28125 106.984375 198.476562 107.0625 198.765625 C 107.222656 199.347656 107.234375 199.933594 107.375 200.519531 C 107.527344 201.125 107.734375 201.714844 107.929688 202.304688 C 108.300781 203.433594 108.652344 204.566406 108.96875 205.710938 C 109.59375 207.988281 110.074219 210.316406 110.261719 212.679688 C 110.585938 216.894531 109.855469 221.28125 107.617188 224.917969 C 106.648438 226.496094 105.234375 228.019531 103.359375 228.441406 C 101.59375 228.835938 99.96875 227.953125 99.070312 226.445312 C 98.101562 224.828125 97.828125 222.820312 97.710938 220.96875 C 97.566406 218.714844 97.804688 216.429688 98.28125 214.226562 C 98.84375 211.640625 99.714844 209.121094 100.710938 206.671875 C 101.71875 204.191406 102.914062 201.78125 103.730469 199.226562 C 103.785156 199.050781 103.542969 198.976562 103.449219 199.117188 C 101.996094 201.230469 100.871094 203.550781 99.851562 205.902344 C 98.839844 208.234375 97.945312 210.621094 97.320312 213.085938 " fill-opacity="1" fill-rule="nonzero"/><path fill="#ffffff" d="M 81.667969 226.4375 C 81.480469 226.464844 81.441406 226.765625 81.636719 226.808594 C 81.980469 226.886719 82.332031 226.976562 82.609375 227.210938 C 82.878906 227.441406 83.027344 227.695312 83.054688 228.035156 C 83.054688 228.046875 83.054688 228.046875 83.054688 228.046875 C 83.054688 228.046875 83.054688 228.046875 83.054688 228.050781 C 83.054688 228.070312 83.054688 228.085938 83.054688 228.101562 C 83.054688 228.148438 83.054688 228.191406 83.046875 228.234375 C 83.046875 228.257812 83.035156 228.339844 83.035156 228.328125 C 83.042969 228.296875 83.03125 228.351562 83.03125 228.351562 C 83.023438 228.375 83.015625 228.402344 83.007812 228.429688 C 82.996094 228.464844 82.980469 228.5 82.964844 228.535156 C 82.960938 228.546875 82.9375 228.597656 82.960938 228.546875 C 82.957031 228.5625 82.949219 228.578125 82.9375 228.59375 C 82.917969 228.625 82.902344 228.65625 82.878906 228.6875 C 82.867188 228.707031 82.851562 228.722656 82.839844 228.742188 C 82.832031 228.746094 82.832031 228.75 82.832031 228.753906 C 82.832031 228.753906 82.832031 228.753906 82.824219 228.757812 C 82.796875 228.78125 82.773438 228.8125 82.742188 228.835938 C 82.730469 228.84375 82.714844 228.851562 82.703125 228.863281 C 82.667969 228.886719 82.636719 228.902344 82.605469 228.921875 C 82.59375 228.925781 82.597656 228.921875 82.59375 228.925781 C 82.578125 228.933594 82.558594 228.9375 82.539062 228.941406 C 82.53125 228.945312 82.519531 228.945312 82.507812 228.949219 C 82.527344 228.945312 82.519531 228.945312 82.40625 228.96875 C 82.402344 228.96875 82.351562 228.972656 82.382812 228.96875 C 82.425781 228.96875 82.355469 228.972656 82.34375 228.972656 C 82.285156 228.972656 82.171875 228.96875 82.136719 228.960938 C 81.949219 228.933594 81.785156 228.875 81.664062 228.722656 C 81.546875 228.582031 81.503906 228.386719 81.550781 228.210938 C 81.585938 228.042969 81.34375 227.988281 81.296875 228.140625 C 81.167969 228.570312 81.398438 228.953125 81.65625 229.28125 C 81.984375 229.691406 82.585938 229.714844 83.015625 229.449219 C 83.4375 229.1875 83.695312 228.726562 83.742188 228.238281 C 83.789062 227.75 83.589844 227.277344 83.226562 226.949219 C 82.820312 226.574219 82.214844 226.351562 81.667969 226.4375 " fill-opacity="1" fill-rule="nonzero"/><path fill="#ffffff" d="M 104.941406 153.078125 C 104.589844 153.375 104.492188 153.828125 104.507812 154.269531 C 104.511719 154.382812 104.53125 154.492188 104.558594 154.605469 C 104.582031 154.722656 104.601562 154.824219 104.664062 154.929688 C 104.8125 155.167969 105.015625 155.339844 105.285156 155.421875 C 105.78125 155.578125 106.363281 155.410156 106.746094 155.074219 C 107.148438 154.722656 107.320312 154.152344 107.152344 153.644531 C 107.0625 153.367188 106.910156 153.105469 106.6875 152.917969 C 106.554688 152.804688 106.421875 152.726562 106.261719 152.667969 C 106.105469 152.609375 105.9375 152.621094 105.773438 152.648438 C 105.664062 152.664062 105.566406 152.78125 105.558594 152.894531 C 105.546875 153.011719 105.628906 153.101562 105.734375 153.136719 C 105.75 153.140625 105.753906 153.140625 105.757812 153.140625 C 105.761719 153.144531 105.757812 153.144531 105.765625 153.148438 C 105.785156 153.15625 105.800781 153.164062 105.820312 153.175781 C 105.863281 153.199219 105.902344 153.21875 105.945312 153.238281 C 105.988281 153.257812 106.023438 153.28125 106.058594 153.300781 C 106.082031 153.3125 106.097656 153.324219 106.117188 153.339844 C 106.121094 153.339844 106.144531 153.359375 106.160156 153.367188 C 106.222656 153.421875 106.28125 153.476562 106.335938 153.539062 C 106.34375 153.550781 106.394531 153.625 106.347656 153.558594 C 106.359375 153.574219 106.371094 153.59375 106.382812 153.613281 C 106.414062 153.660156 106.4375 153.707031 106.460938 153.753906 C 106.46875 153.773438 106.476562 153.792969 106.488281 153.816406 C 106.488281 153.820312 106.488281 153.816406 106.488281 153.824219 C 106.492188 153.828125 106.488281 153.828125 106.492188 153.835938 C 106.5 153.878906 106.515625 153.921875 106.523438 153.964844 C 106.527344 153.984375 106.527344 154.003906 106.535156 154.027344 C 106.535156 154.035156 106.535156 154.039062 106.535156 154.046875 C 106.535156 154.097656 106.535156 154.144531 106.527344 154.191406 C 106.527344 154.199219 106.523438 154.238281 106.523438 154.242188 C 106.519531 154.25 106.519531 154.257812 106.515625 154.265625 C 106.5 154.3125 106.480469 154.351562 106.464844 154.398438 C 106.449219 154.421875 106.4375 154.445312 106.421875 154.464844 C 106.414062 154.476562 106.40625 154.492188 106.394531 154.503906 C 106.390625 154.511719 106.382812 154.515625 106.378906 154.523438 C 106.375 154.527344 106.375 154.527344 106.371094 154.53125 C 106.339844 154.5625 106.3125 154.589844 106.28125 154.617188 C 106.269531 154.628906 106.25 154.636719 106.238281 154.652344 C 106.234375 154.652344 106.238281 154.652344 106.234375 154.652344 C 106.199219 154.671875 106.164062 154.691406 106.125 154.714844 C 106.105469 154.726562 106.082031 154.734375 106.058594 154.746094 C 106.054688 154.746094 106.054688 154.746094 106.054688 154.746094 C 106.050781 154.746094 106.054688 154.746094 106.050781 154.746094 C 106.007812 154.761719 105.964844 154.773438 105.917969 154.785156 C 105.898438 154.789062 105.832031 154.796875 105.816406 154.800781 C 105.746094 154.804688 105.671875 154.800781 105.597656 154.796875 C 105.585938 154.792969 105.523438 154.785156 105.511719 154.78125 C 105.46875 154.769531 105.429688 154.757812 105.390625 154.746094 C 105.367188 154.734375 105.34375 154.726562 105.320312 154.71875 C 105.3125 154.71875 105.3125 154.71875 105.3125 154.714844 C 105.265625 154.691406 105.21875 154.675781 105.179688 154.644531 C 105.160156 154.632812 105.144531 154.621094 105.128906 154.609375 C 105.171875 154.644531 105.109375 154.59375 105.105469 154.589844 C 105.074219 154.5625 105.046875 154.53125 105.015625 154.503906 C 104.945312 154.441406 104.910156 154.402344 104.867188 154.316406 C 104.683594 153.953125 104.792969 153.496094 105.09375 153.234375 C 105.207031 153.132812 105.054688 152.984375 104.941406 153.078125 " fill-opacity="1" fill-rule="nonzero"/><g fill="#ffffff" fill-opacity="1"><g transform="translate(147.064486, 197.585551)"><g><path d="M 1.40625 -0.65625 L 1.40625 0 L 8.65625 0 L 8.65625 -0.65625 L 5.359375 -0.65625 L 5.359375 -26.328125 L 14.546875 0 L 15.078125 0 L 24.265625 -26.5 L 24.265625 -0.65625 L 20.96875 -0.65625 L 20.96875 0 L 31.5625 0 L 31.5625 -0.65625 L 28.265625 -0.65625 L 28.265625 -27.03125 L 31.5625 -27.03125 L 31.5625 -27.6875 L 23.9375 -27.6875 L 16.609375 -6.515625 L 9.03125 -27.6875 L 1.40625 -27.6875 L 1.40625 -27.03125 L 4.703125 -27.03125 L 4.703125 -0.65625 Z M 1.40625 -0.65625 "/></g></g></g><g fill="#ffffff" fill-opacity="1"><g transform="translate(179.897038, 197.585551)"><g><path d="M 1.234375 -16.15625 L 1.234375 -15.5 L 3.953125 -15.5 L 10.84375 0.171875 L 8.453125 6.46875 C 8.085938 7.375 7.691406 8.046875 7.265625 8.484375 C 6.847656 8.921875 6.445312 9.140625 6.0625 9.140625 C 5.84375 9.140625 5.695312 9.082031 5.625 8.96875 C 5.550781 8.863281 5.472656 8.726562 5.390625 8.5625 C 5.234375 8.207031 5.03125 7.941406 4.78125 7.765625 C 4.53125 7.585938 4.203125 7.5 3.796875 7.5 C 3.328125 7.5 2.96875 7.648438 2.71875 7.953125 C 2.46875 8.253906 2.34375 8.613281 2.34375 9.03125 C 2.34375 9.550781 2.515625 9.96875 2.859375 10.28125 C 3.203125 10.59375 3.734375 10.75 4.453125 10.75 C 5.410156 10.75 6.300781 10.382812 7.125 9.65625 C 7.945312 8.925781 8.59375 7.929688 9.0625 6.671875 L 17.546875 -15.5 L 20.265625 -15.5 L 20.265625 -16.15625 L 13.765625 -16.15625 L 13.765625 -15.5 L 16.8125 -15.5 L 12.53125 -4.28125 L 7.75 -15.5 L 10.921875 -15.5 L 10.921875 -16.15625 Z M 1.234375 -16.15625 "/></g></g></g><g fill="#ffffff" fill-opacity="1"><g transform="translate(200.741813, 197.585551)"><g><path d="M 21.75 -1.765625 C 21.664062 -2.046875 21.601562 -2.429688 21.5625 -2.921875 C 21.53125 -3.421875 21.503906 -3.957031 21.484375 -4.53125 C 21.472656 -5.101562 21.457031 -5.691406 21.4375 -6.296875 C 21.425781 -6.898438 21.378906 -7.476562 21.296875 -8.03125 C 21.140625 -9.132812 20.867188 -10.039062 20.484375 -10.75 C 20.097656 -11.46875 19.628906 -12.050781 19.078125 -12.5 C 18.523438 -12.957031 17.890625 -13.316406 17.171875 -13.578125 C 16.460938 -13.835938 15.695312 -14.078125 14.875 -14.296875 C 17.019531 -14.679688 18.664062 -15.441406 19.8125 -16.578125 C 20.96875 -17.722656 21.546875 -19.160156 21.546875 -20.890625 C 21.546875 -21.960938 21.316406 -22.921875 20.859375 -23.765625 C 20.410156 -24.617188 19.800781 -25.332031 19.03125 -25.90625 C 18.257812 -26.488281 17.34375 -26.929688 16.28125 -27.234375 C 15.226562 -27.535156 14.113281 -27.6875 12.9375 -27.6875 L 1.3125 -27.6875 L 1.3125 -27.03125 L 4.859375 -27.03125 L 4.859375 -0.65625 L 1.3125 -0.65625 L 1.3125 0 L 12.40625 0 L 12.40625 -0.65625 L 8.859375 -0.65625 L 8.859375 -14.125 L 12.28125 -14.125 C 12.71875 -14.125 13.179688 -14.046875 13.671875 -13.890625 C 14.171875 -13.742188 14.632812 -13.457031 15.0625 -13.03125 C 15.488281 -12.613281 15.859375 -12.023438 16.171875 -11.265625 C 16.484375 -10.515625 16.710938 -9.546875 16.859375 -8.359375 C 16.929688 -7.648438 16.972656 -6.921875 16.984375 -6.171875 C 17.003906 -5.429688 17.046875 -4.71875 17.109375 -4.03125 C 17.179688 -3.351562 17.304688 -2.722656 17.484375 -2.140625 C 17.671875 -1.566406 17.953125 -1.070312 18.328125 -0.65625 C 18.691406 -0.269531 19.113281 -0.0078125 19.59375 0.125 C 20.070312 0.257812 20.585938 0.328125 21.140625 0.328125 C 21.609375 0.328125 22.070312 0.28125 22.53125 0.1875 C 23 0.09375 23.429688 -0.0195312 23.828125 -0.15625 C 24.234375 -0.300781 24.578125 -0.445312 24.859375 -0.59375 C 25.148438 -0.75 25.363281 -0.894531 25.5 -1.03125 C 25.582031 -1.113281 25.625 -1.195312 25.625 -1.28125 C 25.625 -1.363281 25.582031 -1.40625 25.5 -1.40625 C 25.445312 -1.40625 25.363281 -1.375 25.25 -1.3125 C 24.707031 -0.925781 24.09375 -0.734375 23.40625 -0.734375 C 22.550781 -0.734375 22 -1.078125 21.75 -1.765625 Z M 8.859375 -14.796875 L 8.859375 -27.03125 L 12.9375 -27.03125 C 16.070312 -27.03125 17.640625 -25.226562 17.640625 -21.625 L 17.640625 -20.140625 C 17.640625 -16.578125 16.070312 -14.796875 12.9375 -14.796875 Z M 8.859375 -14.796875 "/></g></g></g><g fill="#ffffff" fill-opacity="1"><g transform="translate(226.612382, 197.585551)"><g><path d="M 16.1875 -10.015625 C 16.164062 -10.453125 16.023438 -11.054688 15.765625 -11.828125 C 15.503906 -12.597656 15.097656 -13.335938 14.546875 -14.046875 C 13.992188 -14.765625 13.265625 -15.390625 12.359375 -15.921875 C 11.453125 -16.460938 10.34375 -16.734375 9.03125 -16.734375 C 7.925781 -16.734375 6.898438 -16.46875 5.953125 -15.9375 C 5.003906 -15.414062 4.1875 -14.742188 3.5 -13.921875 C 2.8125 -13.097656 2.273438 -12.164062 1.890625 -11.125 C 1.503906 -10.082031 1.3125 -9.023438 1.3125 -7.953125 C 1.3125 -6.878906 1.503906 -5.832031 1.890625 -4.8125 C 2.273438 -3.800781 2.8125 -2.894531 3.5 -2.09375 C 4.1875 -1.300781 5.015625 -0.65625 5.984375 -0.15625 C 6.960938 0.332031 8.03125 0.578125 9.1875 0.578125 C 10.125 0.578125 10.972656 0.445312 11.734375 0.1875 C 12.503906 -0.0703125 13.1875 -0.425781 13.78125 -0.875 C 14.375 -1.332031 14.875 -1.863281 15.28125 -2.46875 C 15.695312 -3.070312 16.03125 -3.707031 16.28125 -4.375 C 16.363281 -4.5625 16.40625 -4.75 16.40625 -4.9375 C 16.40625 -5.132812 16.320312 -5.234375 16.15625 -5.234375 C 16.019531 -5.234375 15.894531 -5.097656 15.78125 -4.828125 C 15.53125 -4.242188 15.21875 -3.660156 14.84375 -3.078125 C 14.476562 -2.503906 14.023438 -2 13.484375 -1.5625 C 12.953125 -1.125 12.34375 -0.765625 11.65625 -0.484375 C 10.96875 -0.210938 10.171875 -0.078125 9.265625 -0.078125 C 8.171875 -0.078125 7.285156 -0.488281 6.609375 -1.3125 C 5.941406 -2.132812 5.609375 -3.457031 5.609375 -5.28125 L 5.609375 -9.484375 L 15.53125 -9.484375 C 15.96875 -9.484375 16.1875 -9.660156 16.1875 -10.015625 Z M 5.609375 -10.140625 L 5.609375 -11.78125 C 5.609375 -12.6875 5.707031 -13.421875 5.90625 -13.984375 C 6.113281 -14.546875 6.378906 -14.976562 6.703125 -15.28125 C 7.035156 -15.582031 7.410156 -15.785156 7.828125 -15.890625 C 8.242188 -16.003906 8.65625 -16.0625 9.0625 -16.0625 C 9.71875 -16.0625 10.257812 -15.945312 10.6875 -15.71875 C 11.113281 -15.488281 11.453125 -15.179688 11.703125 -14.796875 C 11.953125 -14.410156 12.113281 -13.984375 12.1875 -13.515625 C 12.269531 -13.046875 12.3125 -12.566406 12.3125 -12.078125 C 12.3125 -10.785156 12.109375 -10.140625 11.703125 -10.140625 Z M 5.609375 -10.140625 "/></g></g></g><g fill="#ffffff" fill-opacity="1"><g transform="translate(244.4911, 197.585551)"><g><path d="M 5.640625 -7.125 L 5.640625 -8.9375 C 5.640625 -10.28125 5.722656 -11.40625 5.890625 -12.3125 C 6.054688 -13.21875 6.3125 -13.953125 6.65625 -14.515625 C 7 -15.085938 7.429688 -15.488281 7.953125 -15.71875 C 8.472656 -15.945312 9.09375 -16.0625 9.8125 -16.0625 C 10.820312 -16.0625 11.507812 -15.929688 11.875 -15.671875 C 12.25 -15.410156 12.4375 -15.226562 12.4375 -15.125 C 12.4375 -15.007812 12.394531 -14.910156 12.3125 -14.828125 C 12.125 -14.609375 11.984375 -14.378906 11.890625 -14.140625 C 11.796875 -13.910156 11.75 -13.617188 11.75 -13.265625 C 11.75 -12.710938 11.925781 -12.289062 12.28125 -12 C 12.632812 -11.71875 13.046875 -11.578125 13.515625 -11.578125 C 14.066406 -11.578125 14.503906 -11.738281 14.828125 -12.0625 C 15.160156 -12.394531 15.328125 -12.820312 15.328125 -13.34375 C 15.328125 -13.863281 15.144531 -14.335938 14.78125 -14.765625 C 14.425781 -15.191406 13.984375 -15.550781 13.453125 -15.84375 C 12.921875 -16.132812 12.335938 -16.351562 11.703125 -16.5 C 11.066406 -16.65625 10.460938 -16.734375 9.890625 -16.734375 C 8.816406 -16.734375 7.769531 -16.519531 6.75 -16.09375 C 5.738281 -15.664062 4.832031 -15.070312 4.03125 -14.3125 C 3.238281 -13.5625 2.59375 -12.648438 2.09375 -11.578125 C 1.601562 -10.503906 1.359375 -9.320312 1.359375 -8.03125 C 1.359375 -6.71875 1.597656 -5.53125 2.078125 -4.46875 C 2.554688 -3.414062 3.1875 -2.507812 3.96875 -1.75 C 4.757812 -1 5.65625 -0.421875 6.65625 -0.015625 C 7.65625 0.378906 8.664062 0.578125 9.6875 0.578125 C 10.695312 0.578125 11.585938 0.414062 12.359375 0.09375 C 13.128906 -0.21875 13.773438 -0.613281 14.296875 -1.09375 C 14.816406 -1.570312 15.226562 -2.078125 15.53125 -2.609375 C 15.832031 -3.148438 16.050781 -3.640625 16.1875 -4.078125 C 16.25 -4.242188 16.28125 -4.351562 16.28125 -4.40625 C 16.28125 -4.65625 16.171875 -4.78125 15.953125 -4.78125 C 15.785156 -4.78125 15.660156 -4.644531 15.578125 -4.375 C 15.410156 -3.84375 15.160156 -3.320312 14.828125 -2.8125 C 14.503906 -2.3125 14.097656 -1.851562 13.609375 -1.4375 C 13.128906 -1.03125 12.566406 -0.703125 11.921875 -0.453125 C 11.273438 -0.203125 10.570312 -0.078125 9.8125 -0.078125 C 8.957031 -0.078125 8.257812 -0.203125 7.71875 -0.453125 C 7.1875 -0.703125 6.757812 -1.109375 6.4375 -1.671875 C 6.125 -2.234375 5.910156 -2.957031 5.796875 -3.84375 C 5.691406 -4.738281 5.640625 -5.832031 5.640625 -7.125 Z M 5.640625 -7.125 "/></g></g></g><g fill="#ffffff" fill-opacity="1"><g transform="translate(261.381123, 197.585551)"><g><path d="M 8.109375 -16.15625 L 1.484375 -16.15625 L 1.484375 -15.5 L 4.578125 -15.5 L 4.578125 -0.65625 L 1.484375 -0.65625 L 1.484375 0 L 11.203125 0 L 11.203125 -0.65625 L 8.109375 -0.65625 Z M 8.453125 -23.78125 C 8.453125 -24.382812 8.242188 -24.890625 7.828125 -25.296875 C 7.410156 -25.710938 6.898438 -25.921875 6.296875 -25.921875 C 5.691406 -25.921875 5.179688 -25.710938 4.765625 -25.296875 C 4.359375 -24.890625 4.15625 -24.382812 4.15625 -23.78125 C 4.15625 -23.175781 4.359375 -22.664062 4.765625 -22.25 C 5.179688 -21.832031 5.691406 -21.625 6.296875 -21.625 C 6.898438 -21.625 7.410156 -21.832031 7.828125 -22.25 C 8.242188 -22.664062 8.453125 -23.175781 8.453125 -23.78125 Z M 8.453125 -23.78125 "/></g></g></g><g fill="#ffffff" fill-opacity="1"><g transform="translate(273.492509, 197.585551)"><g><path d="M 15.28125 -7.203125 C 15.28125 -5.671875 15.195312 -4.441406 15.03125 -3.515625 C 14.875 -2.597656 14.632812 -1.890625 14.3125 -1.390625 C 14 -0.898438 13.625 -0.570312 13.1875 -0.40625 C 12.75 -0.25 12.253906 -0.171875 11.703125 -0.171875 C 11.128906 -0.171875 10.578125 -0.285156 10.046875 -0.515625 C 9.523438 -0.742188 9.054688 -1.046875 8.640625 -1.421875 C 8.234375 -1.796875 7.90625 -2.203125 7.65625 -2.640625 C 7.414062 -3.078125 7.296875 -3.503906 7.296875 -3.921875 L 7.296875 -11.90625 C 7.296875 -12.40625 7.429688 -12.898438 7.703125 -13.390625 C 7.972656 -13.878906 8.328125 -14.320312 8.765625 -14.71875 C 9.210938 -15.125 9.703125 -15.445312 10.234375 -15.6875 C 10.773438 -15.9375 11.304688 -16.0625 11.828125 -16.0625 C 12.265625 -16.0625 12.6875 -15.984375 13.09375 -15.828125 C 13.507812 -15.679688 13.878906 -15.367188 14.203125 -14.890625 C 14.535156 -14.410156 14.796875 -13.707031 14.984375 -12.78125 C 15.179688 -11.863281 15.28125 -10.640625 15.28125 -9.109375 Z M 7.296875 -14.046875 L 7.296875 -16.15625 L 1.078125 -16.15625 L 1.078125 -15.5 L 3.75 -15.5 L 3.75 10.390625 L 1.078125 10.390625 L 1.078125 11.046875 L 9.96875 11.046875 L 9.96875 10.390625 L 7.296875 10.390625 L 7.296875 -1.765625 C 7.765625 -1.078125 8.367188 -0.515625 9.109375 -0.078125 C 9.847656 0.359375 10.738281 0.578125 11.78125 0.578125 C 12.769531 0.578125 13.726562 0.34375 14.65625 -0.125 C 15.59375 -0.59375 16.425781 -1.21875 17.15625 -2 C 17.882812 -2.78125 18.46875 -3.695312 18.90625 -4.75 C 19.351562 -5.8125 19.578125 -6.929688 19.578125 -8.109375 C 19.578125 -9.296875 19.347656 -10.410156 18.890625 -11.453125 C 18.441406 -12.492188 17.84375 -13.40625 17.09375 -14.1875 C 16.351562 -14.976562 15.519531 -15.597656 14.59375 -16.046875 C 13.675781 -16.503906 12.765625 -16.734375 11.859375 -16.734375 C 10.710938 -16.734375 9.773438 -16.441406 9.046875 -15.859375 C 8.316406 -15.285156 7.734375 -14.679688 7.296875 -14.046875 Z M 7.296875 -14.046875 "/></g></g></g><g fill="#ffffff" fill-opacity="1"><g transform="translate(294.090095, 197.585551)"><g><path d="M 16.1875 -10.015625 C 16.164062 -10.453125 16.023438 -11.054688 15.765625 -11.828125 C 15.503906 -12.597656 15.097656 -13.335938 14.546875 -14.046875 C 13.992188 -14.765625 13.265625 -15.390625 12.359375 -15.921875 C 11.453125 -16.460938 10.34375 -16.734375 9.03125 -16.734375 C 7.925781 -16.734375 6.898438 -16.46875 5.953125 -15.9375 C 5.003906 -15.414062 4.1875 -14.742188 3.5 -13.921875 C 2.8125 -13.097656 2.273438 -12.164062 1.890625 -11.125 C 1.503906 -10.082031 1.3125 -9.023438 1.3125 -7.953125 C 1.3125 -6.878906 1.503906 -5.832031 1.890625 -4.8125 C 2.273438 -3.800781 2.8125 -2.894531 3.5 -2.09375 C 4.1875 -1.300781 5.015625 -0.65625 5.984375 -0.15625 C 6.960938 0.332031 8.03125 0.578125 9.1875 0.578125 C 10.125 0.578125 10.972656 0.445312 11.734375 0.1875 C 12.503906 -0.0703125 13.1875 -0.425781 13.78125 -0.875 C 14.375 -1.332031 14.875 -1.863281 15.28125 -2.46875 C 15.695312 -3.070312 16.03125 -3.707031 16.28125 -4.375 C 16.363281 -4.5625 16.40625 -4.75 16.40625 -4.9375 C 16.40625 -5.132812 16.320312 -5.234375 16.15625 -5.234375 C 16.019531 -5.234375 15.894531 -5.097656 15.78125 -4.828125 C 15.53125 -4.242188 15.21875 -3.660156 14.84375 -3.078125 C 14.476562 -2.503906 14.023438 -2 13.484375 -1.5625 C 12.953125 -1.125 12.34375 -0.765625 11.65625 -0.484375 C 10.96875 -0.210938 10.171875 -0.078125 9.265625 -0.078125 C 8.171875 -0.078125 7.285156 -0.488281 6.609375 -1.3125 C 5.941406 -2.132812 5.609375 -3.457031 5.609375 -5.28125 L 5.609375 -9.484375 L 15.53125 -9.484375 C 15.96875 -9.484375 16.1875 -9.660156 16.1875 -10.015625 Z M 5.609375 -10.140625 L 5.609375 -11.78125 C 5.609375 -12.6875 5.707031 -13.421875 5.90625 -13.984375 C 6.113281 -14.546875 6.378906 -14.976562 6.703125 -15.28125 C 7.035156 -15.582031 7.410156 -15.785156 7.828125 -15.890625 C 8.242188 -16.003906 8.65625 -16.0625 9.0625 -16.0625 C 9.71875 -16.0625 10.257812 -15.945312 10.6875 -15.71875 C 11.113281 -15.488281 11.453125 -15.179688 11.703125 -14.796875 C 11.953125 -14.410156 12.113281 -13.984375 12.1875 -13.515625 C 12.269531 -13.046875 12.3125 -12.566406 12.3125 -12.078125 C 12.3125 -10.785156 12.109375 -10.140625 11.703125 -10.140625 Z M 5.609375 -10.140625 "/></g></g></g><g fill="#ffffff" fill-opacity="1"><g transform="translate(311.968813, 197.585551)"><g><path d="M 11.703125 -16.515625 L 10.75 -15.578125 C 9.90625 -16.347656 8.863281 -16.734375 7.625 -16.734375 C 6.738281 -16.734375 5.953125 -16.585938 5.265625 -16.296875 C 4.585938 -16.003906 4.019531 -15.609375 3.5625 -15.109375 C 3.113281 -14.617188 2.769531 -14.054688 2.53125 -13.421875 C 2.300781 -12.796875 2.1875 -12.15625 2.1875 -11.5 C 2.1875 -10.476562 2.476562 -9.582031 3.0625 -8.8125 C 3.65625 -8.039062 4.546875 -7.519531 5.734375 -7.25 C 6.085938 -7.164062 6.484375 -7.078125 6.921875 -6.984375 C 7.359375 -6.890625 7.800781 -6.78125 8.25 -6.65625 C 8.707031 -6.53125 9.148438 -6.390625 9.578125 -6.234375 C 10.003906 -6.085938 10.382812 -5.921875 10.71875 -5.734375 C 11.257812 -5.429688 11.632812 -5.070312 11.84375 -4.65625 C 12.050781 -4.238281 12.15625 -3.8125 12.15625 -3.375 C 12.15625 -2.800781 12.007812 -2.300781 11.71875 -1.875 C 11.4375 -1.445312 11.070312 -1.101562 10.625 -0.84375 C 10.1875 -0.582031 9.71875 -0.390625 9.21875 -0.265625 C 8.726562 -0.140625 8.265625 -0.078125 7.828125 -0.078125 C 6.566406 -0.078125 5.453125 -0.425781 4.484375 -1.125 C 3.523438 -1.832031 2.851562 -2.914062 2.46875 -4.375 C 2.382812 -4.613281 2.273438 -4.734375 2.140625 -4.734375 C 1.972656 -4.734375 1.890625 -4.625 1.890625 -4.40625 L 1.890625 0 C 1.890625 0.21875 1.972656 0.328125 2.140625 0.328125 C 2.253906 0.328125 2.351562 0.257812 2.4375 0.125 L 3.296875 -1.15625 C 3.785156 -0.632812 4.40625 -0.21875 5.15625 0.09375 C 5.914062 0.414062 6.847656 0.578125 7.953125 0.578125 C 8.859375 0.578125 9.65625 0.429688 10.34375 0.140625 C 11.03125 -0.140625 11.613281 -0.535156 12.09375 -1.046875 C 12.570312 -1.554688 12.9375 -2.144531 13.1875 -2.8125 C 13.4375 -3.488281 13.5625 -4.226562 13.5625 -5.03125 C 13.5625 -6.070312 13.296875 -7.054688 12.765625 -7.984375 C 12.242188 -8.921875 11.257812 -9.640625 9.8125 -10.140625 C 9.5625 -10.222656 9.242188 -10.3125 8.859375 -10.40625 C 8.472656 -10.5 8.066406 -10.597656 7.640625 -10.703125 C 7.210938 -10.816406 6.785156 -10.925781 6.359375 -11.03125 C 5.941406 -11.144531 5.59375 -11.242188 5.3125 -11.328125 C 4.757812 -11.523438 4.367188 -11.765625 4.140625 -12.046875 C 3.910156 -12.335938 3.796875 -12.742188 3.796875 -13.265625 C 3.796875 -13.984375 4.132812 -14.628906 4.8125 -15.203125 C 5.5 -15.773438 6.367188 -16.0625 7.421875 -16.0625 C 8.078125 -16.0625 8.660156 -15.9375 9.171875 -15.6875 C 9.679688 -15.445312 10.101562 -15.132812 10.4375 -14.75 C 10.78125 -14.363281 11.054688 -13.929688 11.265625 -13.453125 C 11.472656 -12.972656 11.617188 -12.5 11.703125 -12.03125 C 11.734375 -11.863281 11.816406 -11.78125 11.953125 -11.78125 C 12.054688 -11.78125 12.109375 -11.863281 12.109375 -12.03125 L 12.109375 -16.4375 C 12.109375 -16.632812 12.066406 -16.734375 11.984375 -16.734375 C 11.929688 -16.734375 11.835938 -16.660156 11.703125 -16.515625 Z M 11.703125 -16.515625 "/></g></g></g></svg>